# xmcd CD database file
#
# Track frame offsets:
#	182
#	17302
#	28110
#	43842
#	62745
#	73022
#	93497
#	102585
#	116597
#	135265
#	143620
#	151785
#	173117
#	190340
#	203755
#
# Disc length: 3023 seconds
#
# Revision: 0
# Processed by: cddbd v1.5.1PL2 Copyright (c) Steve Scherf et al.
# Submitted via: CDex 1.51
#
DISCID=c70bcd0f
DTITLE=Sellam, Renne, Mathe and Cie - Traditional Odyssey
DYEAR=1995
DGENRE=Jazz
TTITLE0=Jhumar
TTITLE1=Zindagi mein to sabhi piyar kiya karte hein
TTITLE2=Sa même sa
TTITLE3=Asé tuyé
TTITLE4=Mirage
TTITLE5=Quartier Pamplemousses
TTITLE6=Citadelle
TTITLE7=Prière
TTITLE8=Papirhum
TTITLE9=Bamboo
TTITLE10=Tatoo
TTITLE11=Nénuphar road
TTITLE12=Souloulou
TTITLE13=Jab jab phool khile
TTITLE14=Tchin tchin
EXTD=YEAR: 1995
EXTT0=
EXTT1=
EXTT2=
EXTT3=
EXTT4=
EXTT5=
EXTT6=
EXTT7=
EXTT8=
EXTT9=
EXTT10=
EXTT11=
EXTT12=
EXTT13=
EXTT14=
PLAYORDER=
